<svg xmlns="http://www.w3.org/2000/svg" viewBox="0 0 256 256" role="img" aria-labelledby="title desc">
  <title id="title">The Gleaning Ground mark</title>
  <desc id="desc">A dark brown cross above a green leafy branch inside an open circular arch.</desc>
  <rect width="256" height="256" rx="28" fill="#f7e8ce"/>
  <path d="M48 205 A96 96 0 1 1 208 205" fill="none" stroke="#2c1808" stroke-width="8"/>
  <g fill="#2c1808">
    <rect x="120" y="38" width="16" height="72" rx="1"/>
    <rect x="94" y="59" width="68" height="16" rx="1"/>
  </g>
  <g stroke="#2c1808" stroke-width="2" stroke-linejoin="round">
    <path d="M128 96 L128 195" fill="none" stroke-width="4"/>
    <path d="M128 109 C140 103 148 93 148 80 C136 85 129 96 128 109Z" fill="#08701f"/>
    <path d="M128 129 C116 124 108 114 108 102 C120 107 127 117 128 129Z" fill="#08701f"/>
    <path d="M128 149 C140 144 148 134 148 122 C136 127 129 137 128 149Z" fill="#08701f"/>
    <path d="M128 169 C116 164 108 154 108 142 C120 147 127 157 128 169Z" fill="#08701f"/>
    <path d="M128 189 C140 184 148 174 148 162 C136 167 129 177 128 189Z" fill="#08701f"/>
  </g>
</svg>
